<svg height="512pt" viewBox="0 -43 512 511" width="512pt" xmlns="http://www.w3.org/2000/svg"><path d="m309.351562 418.71875h-192.988281c-60.125 0-108.863281-48.742188-108.863281-108.867188v-192.988281c0-60.121093 48.738281-108.863281 108.863281-108.863281h192.992188c60.121093 0 108.863281 48.738281 108.863281 108.863281v192.992188c0 60.121093-48.742188 108.863281-108.867188 108.863281zm0 0" fill="#fcf2d0"/><path d="m165.273438 8h-48.910157c-60.125 0-108.863281 48.738281-108.863281 108.863281v192.992188c0 60.121093 48.738281 108.863281 108.863281 108.863281h192.992188c1.261719 0 2.511719-.054688 3.765625-.09375-132.253906-89.230469-179.925782-278.894531-147.847656-410.625zm0 0" fill="#f6e3a3"/><path d="m495.828125 84.6875-229.992187 229.992188c-12.851563 12.851562-27.78125 23.441406-44.15625 31.324218l-44.347657 21.347656c-20.546875 9.890626-42.074219-11.632812-32.183593-32.183593l21.347656-44.347657c7.882812-16.375 18.472656-31.304687 31.324218-44.15625l229.992188-229.992187c11.5625-11.5625 30.3125-11.5625 41.875 0l26.140625 26.140625c11.5625 11.566406 11.5625 30.3125 0 41.875zm0 0" fill="#f7ef87"/><path d="m297.230469 147.257812-99.410157 99.40625c-12.851562 12.851563-23.441406 27.78125-31.324218 44.15625l-21.347656 44.347657c-9.890626 20.550781 11.632812 42.074219 32.183593 32.183593l44.347657-21.347656c16.375-7.882812 31.304687-18.472656 44.15625-31.324218l54.78125-54.78125c-27.757813-32.726563-38.449219-68.445313-23.386719-112.640626zm0 0" fill="#efd176"/><path d="m287.550781 232.449219c-1.921875 0-3.839843-.730469-5.304687-2.195313-2.929688-2.929687-2.929688-7.675781 0-10.605468l57.183594-57.183594c2.929687-2.929688 7.679687-2.929688 10.605468 0 2.929688 2.929687 2.929688 7.675781 0 10.605468l-57.183594 57.183594c-1.464843 1.464844-3.382812 2.195313-5.300781 2.195313zm0 0" fill="#6a96d7"/><path d="m427.8125 16.671875-25.433594 25.433594 68.015625 68.015625 25.433594-25.433594c11.5625-11.5625 11.5625-30.3125 0-41.875l-26.140625-26.140625c-11.5625-11.5625-30.3125-11.5625-41.875 0zm0 0" fill="#eda1ab"/><path d="m470.398438 110.121094-29.125 29.125-68.015626-68.015625 29.125-29.125zm0 0" fill="#6a96d7"/><path d="m194.558594 250.066406c-11.378906 12.066406-20.863282 25.796875-28.0625 40.753906l-21.347656 44.347657c-9.890626 20.550781 11.632812 42.074219 32.183593 32.183593l44.347657-21.347656c14.957031-7.199218 28.6875-16.683594 40.753906-28.0625zm0 0" fill="#e1b89a"/><path d="m177.332031 367.351562 21.429688-10.316406c-5.707031-7.9375-12.367188-15.816406-19.921875-23.375-7.554688-7.554687-15.4375-14.214844-23.375-19.921875l-10.316406 21.429688c-9.890626 20.550781 11.632812 42.074219 32.183593 32.183593zm0 0" fill="#4e5660"/><path d="m405.363281 361.761719c-3.5-2.21875-8.132812-1.183594-10.351562 2.316406-18.726563 29.515625-50.75 47.140625-85.65625 47.140625h-192.992188c-55.890625 0-101.363281-45.472656-101.363281-101.367188v-179.734374c0-4.144532-3.359375-7.5-7.5-7.5s-7.5 3.355468-7.5 7.5v179.734374c0 64.164063 52.199219 116.367188 116.363281 116.367188h192.992188c40.070312 0 76.828125-20.226562 98.324219-54.105469 2.214843-3.496093 1.179687-8.132812-2.316407-10.351562zm95.765625-324.253907-26.140625-26.140624c-14.46875-14.46875-38.011719-14.46875-52.480469 0l-27.136718 27.140624c-22.046875-24.25-52.941406-38.007812-86.015625-38.007812h-192.992188c-26.769531 0-52.90625 9.316406-73.597656 26.226562-20.398437 16.675782-34.664063 39.964844-40.167969 65.582032-.871094 4.050781 1.707032 8.039062 5.757813 8.910156.53125.109375 1.058593.167969 1.582031.167969 3.460938 0 6.570312-2.40625 7.324219-5.925781 4.792969-22.304688 17.222656-42.589844 35-57.121094 18.015625-14.726563 40.785156-22.839844 64.101562-22.839844h192.992188c29.042969 0 56.160156 12.179688 75.398437 33.625l-16.800781 16.800781s-.003906.003907-.003906.003907l-62.953125 62.953124h-209.136719c-4.140625 0-7.5 3.355469-7.5 7.5 0 4.140626 3.359375 7.5 7.5 7.5h194.136719l-35.957032 35.957032h-158.179687c-4.140625 0-7.5 3.355468-7.5 7.5 0 4.140625 3.359375 7.5 7.5 7.5h143.179687l-46.523437 46.523437c-13.480469 13.480469-24.507813 29.027344-32.777344 46.207031l-21.347656 44.34375c-5.90625 12.277344-3.5 26.433594 6.132813 36.0625 6.125 6.128907 14.082031 9.332032 22.21875 9.332032 4.65625 0 9.375-1.050782 13.84375-3.199219l21.511718-10.355469c.003906-.003906.011719-.007812.019532-.007812l22.816406-10.984375c17.175781-8.269531 32.722656-19.296875 46.207031-32.777344l139.578125-139.582031v129.449218c0 8.214844-.984375 16.382813-2.921875 24.28125-.992187 4.019532 1.46875 8.082032 5.492187 9.070313.601563.148437 1.203126.21875 1.796876.21875 3.371093 0 6.433593-2.289063 7.273437-5.710937 2.230469-9.066407 3.359375-18.441407 3.359375-27.859376v-144.449218l20.847656-20.847656c.003906 0 .003906-.003907.003906-.003907.003907-.003906.003907-.003906.003907-.003906l54.554687-54.554687c7.011719-7.011719 10.871094-16.328126 10.871094-26.242188 0-9.910156-3.859375-19.230469-10.871094-26.242188zm-327.050781 323.085938c-7.824219 3.769531-14.921875.804688-18.949219-3.222656s-6.988281-11.121094-3.222656-18.949219l6.332031-13.152344c5.277344 4.21875 10.402344 8.800781 15.296875 13.695313 4.894532 4.894531 9.472656 10.019531 13.695313 15.296875zm44.347656-21.347656-17.355469 8.355468c-5.144531-6.671874-10.8125-13.128906-16.929687-19.242187-6.117187-6.117187-12.570313-11.789063-19.242187-16.929687l8.355468-17.355469c5.761719-11.972657 13-23.070313 21.578125-33.125l56.71875 56.71875c-10.054687 8.578125-21.152343 15.816406-33.125 21.578125zm44.078125-31.839844-57.410156-57.410156 108.3125-108.3125 59.847656-59.84375 57.40625 57.40625zm178.765625-178.765625-57.410156-57.410156 18.519531-18.515625 57.410156 57.40625zm49.253907-49.257813-20.128907 20.132813-57.410156-57.410156 20.128906-20.128907c4.3125-4.3125 9.972657-6.464843 15.636719-6.464843 5.660156 0 11.324219 2.152343 15.632812 6.464843l26.140626 26.140626c4.175781 4.175781 6.476562 9.730468 6.476562 15.632812 0 5.90625-2.300781 11.460938-6.476562 15.632812zm-394.664063 13.539063h234c4.140625 0 7.5-3.355469 7.5-7.5 0-4.140625-3.359375-7.5-7.5-7.5h-234c-4.140625 0-7.5 3.359375-7.5 7.5 0 4.144531 3.359375 7.5 7.5 7.5zm0 0"/></svg>